<svg id="logo" xmlns="http://www.w3.org/2000/svg" viewBox="0 0 2016 2016"><defs><style>.cls-1{fill:#b356a1;}.cls-2{fill:#e54225;}.cls-3{fill:#6ac8c5;}.cls-4{fill:#e5ddd5;}.cls-5{fill:#e4c321;}</style></defs><title>iztech_logo</title><g id="siyah"><rect id="beyaz" class="cls-1" x="864" y="272" width="96" height="576" rx="31.99997" ry="31.99997"/><rect id="mavi" class="cls-1" x="1056" y="272" width="96" height="576" rx="31.99997" ry="31.99997"/></g><g id="al"><rect id="beyaz-2" data-name="beyaz" class="cls-2" x="864" y="1168" width="96" height="576" rx="31.99997" ry="31.99997"/><rect id="mavi-2" data-name="mavi" class="cls-2" x="1056" y="1168" width="96" height="576" rx="31.99997" ry="31.99997"/></g><g id="mavi-3" data-name="mavi"><rect id="al-2" data-name="al" class="cls-3" x="1168" y="1056" width="576" height="96" rx="31.99997" ry="31.99997"/><rect id="siyah-2" data-name="siyah" class="cls-3" x="1168" y="864" width="576" height="96" rx="31.99997" ry="31.99997"/></g><g id="beyaz-3" data-name="beyaz"><rect id="al-3" data-name="al" class="cls-4" x="272" y="1056" width="576" height="96" rx="31.99997" ry="31.99997"/><rect id="siyah-3" data-name="siyah" class="cls-4" x="272" y="864" width="576" height="96" rx="31.99997" ry="31.99997"/></g><g id="kut"><rect id="siyah-4" data-name="siyah" class="cls-5" x="984" width="48" height="544" rx="12" ry="12"/><rect id="al-4" data-name="al" class="cls-5" x="984" y="1472" width="48" height="544" rx="12" ry="12"/><rect id="beyaz-4" data-name="beyaz" class="cls-5" y="984" width="544" height="48" rx="12" ry="12"/><rect id="mavi-4" data-name="mavi" class="cls-5" x="1472" y="984" width="544" height="48" rx="12" ry="12"/><g id="mavisiyah"><path class="cls-5" d="M1772.49976,292.4707l-16.97046-16.97052a12.03525,12.03525,0,0,0-16.97058,0L1610.24951,403.80945a32.12752,32.12752,0,0,0-38.87707,4.93573l-362.0387,362.03876a32.09408,32.09408,0,0,0,0,45.25482l22.62744,22.62744a32.09415,32.09415,0,0,0,45.25488,0l362.03858-362.03882a32.12722,32.12722,0,0,0,4.93591-38.87677l128.30921-128.30933A12.03514,12.03514,0,0,0,1772.49976,292.4707Z" transform="translate(-16 -16)"/></g><g id="mavial"><path class="cls-5" d="M1772.49976,1734.55859l-125.769-125.7688a32.09889,32.09889,0,0,0-7.47583-33.41748l-362.03882-362.03857a32.09415,32.09415,0,0,0-45.25488,0l-22.62744,22.62744a32.09415,32.09415,0,0,0,0,45.25488l362.03894,362.03858a32.09968,32.09968,0,0,0,43.53,1.58935l123.656,123.65577a12.03514,12.03514,0,0,0,16.97058,0l16.97046-16.97046A12.0353,12.0353,0,0,0,1772.49976,1734.55859Z" transform="translate(-16 -16)"/></g><g id="beyazsiyah"><path class="cls-5" d="M838.66638,770.78363,476.62726,408.74536a32.1273,32.1273,0,0,0-38.87683-4.93585L309.441,275.50037a12.03531,12.03531,0,0,0-16.97058.00006L275.49994,292.471a12.03524,12.03524,0,0,0,0,16.97052L403.80933,437.75067a32.12748,32.12748,0,0,0,4.93579,38.877L770.78424,838.66595a32.094,32.094,0,0,0,45.25476-.00006l22.62744-22.62744A32.094,32.094,0,0,0,838.66638,770.78363Z" transform="translate(-16 -16)"/></g><g id="beyazal"><path class="cls-5" d="M834.66571,1231.96143l-22.6275-22.62745a32.094,32.094,0,0,0-45.25476,0L404.74506,1571.37305a32.09956,32.09956,0,0,0-1.5893,43.53l-123.65582,123.656a12.03547,12.03547,0,0,0,0,16.97071l16.97058,16.97045a12.03513,12.03513,0,0,0,16.97058,0L439.21,1646.7312a32.099,32.099,0,0,0,33.41736-7.47583l362.03839-362.03906A32.09415,32.09415,0,0,0,834.66571,1231.96143Z" transform="translate(-16 -16)"/></g></g></svg>